<svg width="1000" height="907" viewBox="0 0 1000 907" fill="none" xmlns="http://www.w3.org/2000/svg">
<g clip-path="url(#clip0_1530_1396)">
<path d="M795.775 372.67C768.474 486.905 677.349 575.632 559.362 598.655C483.241 613.564 405.729 599.02 340.295 558.018C354.055 541.793 371.475 528.71 391.091 520.086C435.738 501.449 481.777 498.672 530.45 495.602C570.706 493.044 612.427 490.413 654.586 478.28C710.432 464.54 760.496 426.9 795.775 372.67Z" fill="#4DA02D"/>
<path d="M802.289 267.498C794.311 289.862 783.113 311.569 769.06 331.96C739.343 373.255 710.652 399.054 679.032 412.941C637.532 430.628 587.541 434.94 539.307 439.033C454.256 446.341 366.205 453.942 311.383 531.707C316.727 482.008 351.274 438.521 407.12 411.771C431.64 398.981 460.185 387.433 487.779 376.251C520.716 362.803 554.97 348.917 581.686 333.203C671.933 289.497 730.999 191.414 724.632 97.1324C762.253 138.134 787.724 188.345 798.483 243.452C800.094 251.857 801.411 259.97 802.216 267.571L802.289 267.498Z" fill="#F2AF29"/>
<path d="M560.167 287.889C537.77 300.022 512.591 310.912 485.876 322.532C404.119 357.979 312.774 397.593 285.839 483.762C285.546 426.243 317.019 365.654 379.819 303.164C393.652 288.62 409.316 274.514 424.32 261.066C444.888 242.575 466.187 223.353 484.339 201.574C523.277 152.021 541.283 103.272 539.526 52.6956C539.014 33.62 534.695 15.9329 526.717 0C584.979 4.75065 639.947 26.2382 686.571 62.3431C702.6 147.928 646.534 248.641 560.02 287.889H560.167Z" fill="#F25C33"/>
<path d="M468.968 136.892C453.085 175.774 423.735 203.766 392.701 233.439C378.575 247.034 363.863 260.847 351.127 275.684C305.016 322.971 252.609 394.084 251.658 473.457C228.163 439.471 211.768 400.589 203.79 359.734C188.199 280.361 204.448 199.82 249.682 132.726C272.371 99.1789 300.77 71.0405 333.561 49.3337C366.205 27.6269 403.314 12.3517 443.058 4.60449C444.814 4.16597 446.498 3.94671 448.254 3.65436C494.805 29.6002 486.242 97.4979 469.041 136.965L468.968 136.892Z" fill="#2FACBC"/>
</g>
<path d="M64.8596 907C55.1245 907 45.3894 906.355 35.6543 905.064C25.9192 903.958 17.6535 902.207 10.8573 899.81V876.583C18.2046 878.979 26.6539 880.823 36.2053 882.113C45.7568 883.404 54.849 884.049 63.482 884.049C76.7071 884.049 86.3504 883.311 92.4118 881.837C98.4733 880.362 101.504 877.044 101.504 871.882C101.504 868.011 100.035 865.246 97.0957 863.586C94.1568 862.112 88.5545 861.374 80.2889 861.374H45.022C21.3271 861.374 9.4797 852.986 9.4797 836.211C9.4797 830.865 11.041 825.888 14.1636 821.279C17.2862 816.67 22.2456 813.168 29.0418 810.771C21.5108 807.084 15.9085 802.015 12.2349 795.563C8.74497 789.11 7 781.368 7 772.335C7 755.559 11.9594 743.393 21.8782 735.834C31.9807 728.276 47.0425 724.497 67.0638 724.497C71.2885 724.497 75.6968 724.866 80.2889 725.603C84.8809 726.156 88.4627 726.709 91.0342 727.262H138.975L138.149 746.895H116.107C119.597 749.845 122.168 753.532 123.821 757.956C125.474 762.38 126.301 767.173 126.301 772.335C126.301 786.345 122.076 797.406 113.627 805.517C105.178 813.444 92.4118 817.408 75.3295 817.408C72.3906 817.408 69.6354 817.315 67.0638 817.131C64.676 816.762 62.0126 816.394 59.0737 816.025C53.5632 816.578 48.6038 818.053 44.1955 820.449C39.7871 822.846 37.583 826.072 37.583 830.128C37.583 832.893 38.685 834.921 40.8892 836.211C43.0934 837.317 46.767 837.87 51.9101 837.87H88.5545C101.596 837.87 111.607 840.727 118.586 846.442C125.75 851.973 129.332 860.084 129.332 870.776C129.332 883.68 123.73 892.897 112.525 898.428C101.504 904.143 85.6156 907 64.8596 907ZM67.0638 798.328C79.0031 798.328 87.2688 796.3 91.8608 792.244C96.6365 788.189 99.0244 781.276 99.0244 771.505C99.0244 761.735 96.6365 754.638 91.8608 750.213C87.2688 745.789 79.0031 743.577 67.0638 743.577C55.8592 743.577 47.6854 745.697 42.5423 749.937C37.3993 754.177 34.8277 761.366 34.8277 771.505C34.8277 780.907 37.2156 787.728 41.9913 791.968C46.9507 796.208 55.3082 798.328 67.0638 798.328Z" fill="white"/>
<path d="M194.265 861.098C185.999 861.098 178.284 859.623 171.121 856.673C164.141 853.724 158.539 849.3 154.314 843.4C150.089 837.317 147.977 829.851 147.977 821.002C147.977 808.467 152.202 798.42 160.651 790.862C169.284 783.119 182.509 779.248 200.326 779.248H242.205V773.441C242.205 767.173 241.195 762.196 239.175 758.509C237.338 754.822 233.848 752.149 228.705 750.49C223.745 748.831 216.398 748.001 206.663 748.001C191.234 748.001 176.815 750.306 163.406 754.914V732.516C169.284 730.12 176.448 728.184 184.897 726.709C193.346 725.234 202.438 724.497 212.174 724.497C231.276 724.497 245.787 728.368 255.706 736.111C265.808 743.853 270.86 756.481 270.86 773.994V858.333H245.236L243.308 845.06C237.981 850.221 231.368 854.185 223.47 856.95C215.755 859.715 206.02 861.098 194.265 861.098ZM202.255 839.529C211.255 839.529 219.062 838.054 225.674 835.105C232.47 831.971 237.981 827.823 242.205 822.662V799.71H200.877C192.06 799.71 185.632 801.462 181.591 804.964C177.733 808.282 175.805 813.444 175.805 820.449C175.805 827.27 178.101 832.155 182.693 835.105C187.285 838.054 193.805 839.529 202.255 839.529Z" fill="white"/>
<path d="M315.184 699.887V675H347.971V699.887H315.184ZM317.664 858.333V750.213H297.826L300.582 727.262H347.696V858.333H317.664Z" fill="white"/>
<path d="M423.508 861.098C415.242 861.098 407.527 859.623 400.364 856.673C393.384 853.724 387.782 849.3 383.557 843.4C379.332 837.317 377.22 829.851 377.22 821.002C377.22 808.467 381.445 798.42 389.894 790.862C398.527 783.119 411.752 779.248 429.569 779.248H471.448V773.441C471.448 767.173 470.438 762.196 468.418 758.509C466.581 754.822 463.091 752.149 457.948 750.49C452.988 748.831 445.641 748.001 435.906 748.001C420.477 748.001 406.058 750.306 392.649 754.914V732.516C398.527 730.12 405.69 728.184 414.14 726.709C422.589 725.234 431.681 724.497 441.416 724.497C460.519 724.497 475.03 728.368 484.949 736.111C495.051 743.853 500.103 756.481 500.103 773.994V858.333H474.479L472.55 845.06C467.224 850.221 460.611 854.185 452.713 856.95C444.998 859.715 435.263 861.098 423.508 861.098ZM431.498 839.529C440.498 839.529 448.305 838.054 454.917 835.105C461.713 831.971 467.224 827.823 471.448 822.662V799.71H430.12C421.303 799.71 414.875 801.462 410.834 804.964C406.976 808.282 405.048 813.444 405.048 820.449C405.048 827.27 407.344 832.155 411.936 835.105C416.528 838.054 423.048 839.529 431.498 839.529Z" fill="white"/>
<path d="M527.896 858.333V834.828H553.244V858.333H527.896Z" fill="white"/>
<path d="M648.771 861.098C625.994 861.098 608.361 855.475 595.87 844.23C583.38 832.985 577.135 815.749 577.135 792.521C577.135 771.505 582.462 754.914 593.115 742.747C603.769 730.58 619.933 724.497 641.607 724.497C661.445 724.497 676.323 729.751 686.242 740.259C696.344 750.582 701.395 763.947 701.395 780.354V804.688H605.789C607.259 817.408 611.851 826.164 619.565 830.957C627.28 835.75 639.035 838.147 654.832 838.147C661.445 838.147 668.241 837.501 675.221 836.211C682.201 834.921 688.262 833.261 693.405 831.234V853.355C687.527 855.936 680.731 857.872 673.016 859.162C665.486 860.453 657.404 861.098 648.771 861.098ZM605.789 785.055H674.945V775.93C674.945 766.897 672.465 759.892 667.506 754.914C662.547 749.752 654.189 747.172 642.434 747.172C628.474 747.172 618.83 750.213 613.504 756.297C608.361 762.38 605.789 771.966 605.789 785.055Z" fill="white"/>
<path d="M794.827 861.098C771.867 861.098 754.509 855.291 742.754 843.677C730.998 831.879 725.12 814.919 725.12 792.797C725.12 769.754 731.549 752.61 744.407 741.365C757.448 730.12 774.806 724.497 796.481 724.497C805.481 724.497 813.012 725.142 819.073 726.433C825.318 727.723 831.288 729.751 836.982 732.516V754.914C827.431 750.121 815.859 747.725 802.266 747.725C787.205 747.725 775.633 751.135 767.551 757.956C759.469 764.592 755.428 776.206 755.428 792.797C755.428 808.467 759.01 819.988 766.173 827.362C773.337 834.552 785.184 838.147 801.715 838.147C814.757 838.147 826.604 835.658 837.258 830.681V853.632C831.196 856.028 824.676 857.872 817.696 859.162C810.9 860.453 803.277 861.098 794.827 861.098Z" fill="white"/>
<path d="M923.67 861.098C900.159 861.098 882.893 855.199 871.872 843.4C861.035 831.602 855.617 814.735 855.617 792.797C855.617 770.86 861.127 753.992 872.148 742.194C883.169 730.396 900.343 724.497 923.67 724.497C947.182 724.497 964.448 730.396 975.469 742.194C986.49 753.992 992 770.86 992 792.797C992 814.735 986.49 831.602 975.469 843.4C964.631 855.199 947.365 861.098 923.67 861.098ZM923.67 835.658C937.447 835.658 947.182 832.34 952.876 825.703C958.754 818.882 961.693 807.914 961.693 792.797C961.693 777.681 958.754 766.805 952.876 760.168C947.182 753.532 937.447 750.213 923.67 750.213C910.078 750.213 900.343 753.532 894.465 760.168C888.771 766.805 885.924 777.681 885.924 792.797C885.924 807.914 888.771 818.882 894.465 825.703C900.343 832.34 910.078 835.658 923.67 835.658Z" fill="white"/>
<defs>
<clipPath id="clip0_1530_1396">
<rect width="604.355" height="604.355" fill="white" transform="translate(197.934)"/>
</clipPath>
</defs>
</svg>
